<svg xmlns="http://www.w3.org/2000/svg" width="876.87" height="424.816" viewBox="0 0 876.87 424.816">
  <g id="Group_37" data-name="Group 37" transform="translate(-5055.432 -667.556)">
    <g id="Group_32" data-name="Group 32">
      <g id="Group_30" data-name="Group 30">
        <path id="Path_143" data-name="Path 143" d="M5199.48,792.353q-1.836,11.529-23.814,16.436a137.358,137.358,0,0,1-30.2,3.028h-87.4c-1.933,0-2.8-.622-2.6-1.876l2.108-13.269c.2-1.244,1.26-1.882,3.183-1.882h67.218l-48.017-32.882q-19.425-13.125-17.356-26.11,1.318-8.359,11.053-14.277a56.275,56.275,0,0,1,17.4-6.93,79.3,79.3,0,0,1,16.718-1.722h92.748q2.754,0,2.453,1.866l-2.128,13.423c-.186,1.146-1.188,1.732-3.013,1.732h-67.948l47.811,33.319Q5201.477,779.658,5199.48,792.353Z" fill="#fff"/>
        <path id="Path_144" data-name="Path 144" d="M5382.221,761.482q-3.386,21.345-18.168,35.473a50.682,50.682,0,0,1-36.542,14.862h-78.04q-21.2,0-31.828-14.862-10.318-14.136-6.936-35.473l7.409-46.747q.292-1.866,3.177-1.866h56.257c1.825,0,2.638.622,2.448,1.866l-8.483,53.517q-1.92,12.123-.483,17.6,2.057,8.946,12.148,8.935h47.744q20.76,0,26.348-35.185l7.1-44.87c.206-1.244,1.214-1.866,3.049-1.866h19.757c1.825,0,2.648.622,2.447,1.866Z" fill="#fff"/>
        <path id="Path_145" data-name="Path 145" d="M5560.86,739.263a26.308,26.308,0,0,1-5,11.531q-11.588,15.73-37.118,15.736H5460.9c-1.923,0-2.791-.627-2.586-1.881l2.123-13.413q.294-1.883,3.182-1.882H5483.1a23.943,23.943,0,0,0,10.148-2.154q5.775-2.738,6.555-7.649.787-5.052-4.133-7.651a20.444,20.444,0,0,0-9.491-2.01h-31.01l-12.678,80.051c-.2,1.254-1.213,1.876-3.043,1.876h-54.665c-1.845,0-2.642-.622-2.452-1.876l15.089-95.206q.292-1.866,3.033-1.866h130.543q22.644,0,28.761,15.145A21.483,21.483,0,0,1,5560.86,739.263Z" fill="#fff"/>
      </g>
      <g id="Group_31" data-name="Group 31">
        <path id="Path_146" data-name="Path 146" d="M5734.837,808.527c0,1.26-.928,1.9-2.771,1.9H5627.93q-21.469,0-35.051-14.472-13.3-14-13.295-35.637,0-21.907,13.295-36,13.278-14.1,35.051-14.1h104.136c1.843,0,2.771.633,2.771,1.9v13.583c0,1.167-.928,1.758-2.771,1.758H5662.1q-10.812,0-14.46,6.431-2.782,4.657-2.775,16.5v15.921q0,12.268,2.632,18.107,3.948,8.76,14.6,8.76h69.961c1.843,0,2.771.648,2.771,1.9Zm0-45.863c0,1.265-.928,1.9-2.771,1.9H5658.3q-2.915,0-2.918-1.9V749.076q0-1.888,2.918-1.892h73.763c1.843,0,2.771.633,2.771,1.892Z" fill="#fff"/>
        <path id="Path_147" data-name="Path 147" d="M5932.3,808.825c0,1.054-1.02,1.6-3.067,1.6h-58.419a3,3,0,0,1-2.195-.735l-56.664-49.513V749.076q0-1.888,2.773-1.892h19.862a22.02,22.02,0,0,0,9.93-2.19c3.6-1.861,5.406-4.436,5.406-7.752q0-5.1-5.406-7.732a22.535,22.535,0,0,0-9.93-2.046h-31.4v81.063c0,1.26-.972,1.9-2.92,1.9h-55.207c-1.851,0-2.776-.642-2.776-1.9v-96.4q0-1.9,2.776-1.9H5877.24q22.2,0,30.817,15.2a22.53,22.53,0,0,1,2.921,11.094q0,11.536-10.223,19.14-8.472,6.416-21.037,8.457l51.705,43.236A2.005,2.005,0,0,1,5932.3,808.825Z" fill="#fff"/>
      </g>
    </g>
    <g id="Group_35" data-name="Group 35">
      <g id="Group_33" data-name="Group 33">
        <path id="Path_148" data-name="Path 148" d="M5561.382,822.735c.006.6.314,1.489.023,2.083-.878,1.5-.563,2.99-.543,4.773a5.372,5.372,0,0,1-.854,3.584c-.586.9-.268,2.687-.553,3.882a45.67,45.67,0,0,1-1.989,8.665c-.582,1.2-.265,2.977-.847,4.175a18.161,18.161,0,0,0-1.45,3.591c-.557,3.582-2.307,6.881-2.864,10.462-2.34,3.9-3.184,8.378-4.63,12.264-1.443,4.192-3.188,8.082-4.631,12.269l-5.2,14.359a72.74,72.74,0,0,1-2.9,7.183c.6-.007.9.29,1.2.286.013,1.192.328,2.676-1.45,3.592a3.785,3.785,0,0,0-.318-1.789,18.768,18.768,0,0,0-2.323,5.393l.3,0c-.887.6-1.175,1.5-.572,2.089-.59.6-1.182.9-1.47,1.8a10.473,10.473,0,0,1-1.162,2.692l.9.591c.01.891-1.188.308-1.479.908l-1.741,4.19c.3.292.6.589.6.89.01.891-.883.9-1.479.907l-9,20.955c-.577,1.794-1.447,3.887-2.023,5.686a11.148,11.148,0,0,0-.261,3.278c-1.483.612-2.062,2.1-2.642,3.6-1.734,4.786-3.763,9.876-5.792,14.961-.864,2.688-1.427,5.679-2.585,8.666-1.155,3.293-2.9,6.887-4.356,10.184l.007.59,0,.3c.03,2.684.361,5.654.391,8.338a25.559,25.559,0,0,0,.668,6.547c.93,3.27.669,6.547.407,9.825-.268,2.687-.238,5.37-.5,8.347a4.29,4.29,0,0,1-3.254,2.124c-1.489.017-3.27.633-4.773-.542a8.963,8.963,0,0,0-2.992-1.159,3.664,3.664,0,0,1-2.122-3.251c-.364-5.955-1.618-11.6-2.575-17.256a100.977,100.977,0,0,0-2.2-10.1l-.606-.89a2.691,2.691,0,0,1-.315-1.483,18.815,18.815,0,0,0-.618-2.082l0-.295a18.07,18.07,0,0,0-2.469-7.724c-.3-.588-.016-1.487-.026-2.383-.023-2.083-.043-3.87-1.255-5.645a10.753,10.753,0,0,1-1.853-5.938c-.024-2.082.255-3.878-.365-5.954l.285-1.2c-.632-3.267-1.261-6.245-1.893-9.513l-1.483.612a24.043,24.043,0,0,0-.351-4.763c-.026-2.383-.347-4.467-.374-6.85-.3-.588-.311-1.189-.913-1.773-1.513-2.071-1.543-4.749-1.867-7.129a32.441,32.441,0,0,1-.357-5.364,2.271,2.271,0,0,0-1.195-.282c-.3-.292-.3-.292-.305-.593-.344-4.167-1.284-8.327-1.926-12.491-.324-2.38-.95-5.052-.384-7.742-.01-.891-.318-1.784-.328-2.681l-1.191.014a36.537,36.537,0,0,0-.659-5.651l-2.3,7.771c-1.45,3.592-2.6,7.18-4.949,10.486-.877,1.5-.86,2.983-1.439,4.482-.291.6.01.891-.281,1.5a26.608,26.608,0,0,0-2.308,6.875c-1.155,3.287-2.608,6.583-3.763,9.876l-4.909,14.055c-1.155,3.287-2.608,6.583-3.76,10.171l-1.728,5.382a20.807,20.807,0,0,0-1.724,5.677l-.867,2.393a4.256,4.256,0,0,0-.577,1.8c.027,2.383-1.145,4.179-2.019,5.981-.288.9-1.178,1.205-1.767,1.8-.576,1.8-1.453,3.3-1.43,5.384a2.274,2.274,0,0,1-.583,1.2,106.942,106.942,0,0,1-3.757,10.466c-.284,1.2-.87,2.093-1.155,3.288a1.086,1.086,0,0,0-.89.31c-.311-1.188-.626-2.677-.04-3.575,1.172-1.8.854-3.584,1.129-5.67-.893.01-.887.6-1.182.9l-2.568,10.158c-.861,2.989-1.126,5.971-2.284,8.964a56.2,56.2,0,0,0-2.843,12.249,15.739,15.739,0,0,1-.854,3.585c-.292.593-.881,1.2-1.467,2.1l-.053-4.767c-1.122,6.272-2.545,12.246-3.674,17.917.3,0,.6.294.6-.007.89-.31,1.49-.016,1.2.878-.278,1.8.04,3.575-1.132,5.381-1.79-.281-2.369,1.218-2.952,2.416a3.928,3.928,0,0,0-.91-1.482c-.553,3.881-2.006,7.173-1.963,11.047.01.892-.278,1.786.625,2.672a1.789,1.789,0,0,1-.284,1.2c-.265,2.983-.831,5.673-.5,8.348a2.417,2.417,0,0,1-1.166,2.4l-.9-.586c0-.3-.3-.592-.609-1.185-.274,2.087-.254,3.879-.533,5.665-.92-2.374-2.134-4.443-1.271-7.137-.006-.59-.311-1.188-.317-1.778l-1.275-7.437a32.389,32.389,0,0,1-.357-5.359c-.337-3.572-.377-7.146-.417-10.721a24.167,24.167,0,0,0-.073-6.554,32.971,32.971,0,0,1,.533-5.663c-.013-1.192.272-2.387.258-3.578a73.274,73.274,0,0,1,.507-8.053l.284-1.2c-.671-6.847,1.043-13.416,1.864-19.984l.275-2.087a11.945,11.945,0,0,1,.83-5.667l.275-2.091c.288-.9.275-2.091.563-2.985,1.741-4.191,2.291-8.368,3.433-12.847.854-3.585,2-7.473,3.151-11.361.586-.9.576-1.789,1.459-2.7.295-.3.288-.9.579-1.494.577-1.8.557-3.581,1.732-5.087a1.8,1.8,0,0,0,.285-1.2,32.587,32.587,0,0,1,1.7-7.765c.576-1.794.854-3.584,1.43-5.378l2.6-7.775c.86-2.989,2.019-5.981,3.177-8.974l2.6-7.479c2.022-5.681,3.747-11.358,5.769-17.044,1.162-2.691,2.32-5.689,3.184-8.377l9.543-26.029c2.889-8.074,6.378-15.858,9.867-23.643a43.777,43.777,0,0,0,2.023-5.68c1.459-2.7,2.621-5.4,4.084-7.8,2.923-5.094,5.848-9.893,9.073-14.7.592-.3.883-.906,1.178-1.205a10.916,10.916,0,0,1,6.865,1.116,13.116,13.116,0,0,1,5.4,3.515,5.474,5.474,0,0,1,1.257,5.944c-.87,2.1-1.443,4.188-2.313,6.28-.865,2.694-2.03,5.09-2.3,7.777,0,.295-.292.594-.285,1.2l1.886,8.912a17.579,17.579,0,0,1,.642,4.169c0,.295.305.587.007.59-1.175,1.505-.262,3.283.056,5.067.331,2.976.364,5.955,1.586,8.625l.893-.01a2.84,2.84,0,0,1,.03,2.678l-.285,1.2c.308.893.315,1.484,1.5,1.175l.94,4.161c.924,2.674.659,5.65,1.287,8.628-.589.6.312,1.189.318,1.779.924,2.674.953,5.358,2.175,8.023l.01.9a33.846,33.846,0,0,0,.682,7.733,1.11,1.11,0,0,1,.308.893,6.772,6.772,0,0,0,1.549,5.346c-.57,2.39-2.331,4.793.38,7.447.6-.007,1.788-.02,1.8,1.172-.275,2.085.341,3.866.063,5.657-.289.894.016,1.492-.871,2.092a3.434,3.434,0,0,1,.043,3.875,17.34,17.34,0,0,1,1.218,2.37c-.586.9-.579,1.5.616,1.781,1.214,2.075.642,4.164,1.261,6.24.308.893.318,1.789.625,2.677l.831-5.667c0-.3.288-.9.285-1.2l2.6-7.48a2.255,2.255,0,0,0,.583-1.2c-.315-1.489.569-2.39,1.453-3.291-.01-.9-.606-.889-.907-1.181-.609-1.185-.324-2.38.255-3.879a6.658,6.658,0,0,0,.847-4.181,11.289,11.289,0,0,1,.861-2.988,34.754,34.754,0,0,0,3.167-9.87c-.3,0-.3-.292-.6-.584a13.051,13.051,0,0,1,2.022-5.685,40.509,40.509,0,0,0,3.194-7.481,6.491,6.491,0,0,1,.878-1.5,45.838,45.838,0,0,0,3.187-8.076l2.615-5.988a6.4,6.4,0,0,0,.871-2.1,6.037,6.037,0,0,1,3.233-3.906,10.621,10.621,0,0,1,.563-2.991,20.692,20.692,0,0,1,1.447-3.887c.582-1.2,1.466-2.1,2.048-3.3.612,1.485.027,2.383-.853,3.584-1.47,1.809-1.745,3.9-1.719,6.279.593-.308.887-.606,1.185-.609.577-1.794,1.454-3.3,2.033-4.79l2.608-6.583c1.453-3.291,2.31-6.58,3.76-10.171,2.6-7.18,5.5-14.363,8.4-21.84l-.007-.6a25.664,25.664,0,0,0,2.35-3c.027,2.383.344,4.162-.529,5.964a5.468,5.468,0,0,0-.573,2.09,42.384,42.384,0,0,1-3.161,10.459,53.878,53.878,0,0,0-1.715,6.579l.881-1.2c.3.292.3.292.3.587l-.841,4.776q.875-1.8,1.748-3.594c.871-2.093,1.44-4.483,2.311-6.575l.857-3.29c.569-2.39,1.138-4.779,1.711-6.874a24.663,24.663,0,0,0,1.142-4.479c.563-2.985,1.42-6.275,1.98-9.556a18.181,18.181,0,0,1,1.449-3.591,22.019,22.019,0,0,0,2.562-10.754c-.023-2.082.248-4.469-.374-6.846a26.026,26.026,0,0,1,.543-4.772c.281-1.495,1.168-2.1,2.651-2.713,2.4,1.76,4.508,3.525,5.733,6.49a29.146,29.146,0,0,0,2.443,5.336c.619,2.076.937,3.865-.232,5.961a2.238,2.238,0,0,0-.281,1.495C5561.034,818.273,5561.355,820.352,5561.382,822.735Zm-24.613,37.217c-.589.6-.586.9-.576,1.794C5536.484,861.146,5536.477,860.551,5536.769,859.952Zm-1.745,3.895a.293.293,0,0,1,.295-.3l-.3,0Zm.129,11.615,0-.3-.3,0Zm-1.168,2.1a7.621,7.621,0,0,0-.573,2.094C5534,879.35,5534,878.749,5533.985,877.558Zm-5.054.952.294-.3-.3,0Zm4.187,1.441a1.189,1.189,0,0,0-.282,1.495A13.134,13.134,0,0,1,5533.118,879.951Zm-64.038,1.607-.284,1.2c0,.295,0,.295.3.292Zm.345,4.168-.606-.885a1.8,1.8,0,0,0,.311,1.189Zm.135,12.216-.023-2.088c.285-1.2.573-2.1.857-3.29l-.923-2.668c-1.2-.883-1.513-2.071-1.827-3.555l-.007-.6c-.291.6-.281,1.5-.572,2.089.328,2.68.059,5.367.983,8.036a.412.412,0,0,1,.006.6c-.582,1.2.023,2.083.331,2.976C5468.677,898.843,5468.667,897.952,5469.56,897.942Zm4.145-2.429c.006.59.307.887.314,1.483C5474.31,896.4,5474.307,896.1,5473.705,895.513Zm-2.933,4.2c-.295.3-.592.307-1.185.614a6.552,6.552,0,0,0,1.529,3.558C5471.391,901.792,5471.371,900.005,5470.772,899.711ZM5469,901.223a5.01,5.01,0,0,1-.612-1.486C5468.094,900.041,5467.8,900.64,5469,901.223Zm-5.958.066c0,.295-.291.6-.288.894s.3.593.311,1.189Zm.642,4.164c-.006-.6-.311-1.188-.318-1.784-.294.3-.288.894-.582,1.2C5462.792,905.463,5462.795,905.758,5463.685,905.453Zm.027,2.383a.291.291,0,0,0-.3-.292l.007.591a.291.291,0,0,1,.3.3C5463.715,908.131,5464.013,908.128,5463.712,907.836ZM5475.5,922.9c.291-.6.586-.9.579-1.5L5476,914.85a2.665,2.665,0,0,0-.315-1.484c0-.3-.01-.9-.9-.591l.033,2.984c.325,2.38.053,4.766.675,7.143a8.25,8.25,0,0,1-.268,2.682c0,.3.3.592.9.586C5476.117,924.978,5476.4,923.783,5475.5,922.9Zm19.138,33.156c0-.3.291-.6.288-.9-.295.3-.589.6-.291.6Zm-62.525,30.487,0-.3a.292.292,0,0,1-.295.3Zm-.87,2.093,0-.3-.294.3Zm-.867,2.393-.3,0a.293.293,0,0,0,.3.3Zm-25.16,68.508c0,.3-.291.594-.288.894.3-.3.3-.3.292-.6Z" fill="#0090df"/>
        <path id="Path_149" data-name="Path 149" d="M5657.984,883.632c-3.218,5.4-5.24,11.084-8.464,15.887-4.4,6.3-7.907,12.3-12.307,18.6l-10.555,15.314c-3.518,5.1-6.448,9.606-10.866,14.126-2.947,3.007-5.3,6.017-8.547,8.437-3.843,2.721-7.421,2.466-11.32.126-2.1-1.169-4.2-2.938-6-4.11-.659-5.65-1.013-10.714-1.665-15.769-1.483.612-1.767,1.807-2.353,2.705l-8.795,12.911a29.352,29.352,0,0,1-8.255,7.838c-4.144,2.43-7.725,1.873-11.32.126a54.45,54.45,0,0,1-6.9-4.39c-3.306-2.647-3.945-6.516-3.69-10.389a49.411,49.411,0,0,0,.82-6.564,22.363,22.363,0,0,0-.049-4.465c.583-1.2,1.456-3,2.035-4.495.871-2.1,1.444-4.187,4.115-5.107,1.483-.618,1.46-2.7,1.741-4.2l-.3,0c1.771-1.507,2.34-3.9,2.615-5.988.261-3.277,1.721-5.977,3.181-8.672a6.531,6.531,0,0,0,.877-1.5c4.432-3.329,6.762-8.122,9.695-12.326a51.267,51.267,0,0,1,2.916-5.69,6.471,6.471,0,0,1,.877-1.5c2.661-1.817,4.118-4.812,6.474-7.222A14.847,14.847,0,0,1,5584,874.92c1.185-.61.877-1.5,1.165-2.4a6.325,6.325,0,0,1,1.48-.908l.3.292c.3,0,.592-.3.89-.3l-.3,0c1.781-.621,1.765-2.108,2.043-3.9l2.969-.924a3.211,3.211,0,0,1,1.486-.317c2.088.277,3.889,1.449,6.557.228,1.777-.916,3.879.547,5.971,1.125a56.085,56.085,0,0,1,6.286,2.609c4.491,2.038,5.418,5,3.684,9.788.006.6-.289.9-.58,1.5,1.516,2.367.95,5.057.086,7.746-2.016,6.276-4.035,12.257-5.753,18.535-2.3,7.476-4,14.941-6,22.709a12.5,12.5,0,0,0-1.142,4.479c.033,2.985-.529,5.965.4,9.53.589-.6,1.48-.908,2.068-1.51,2.354-2.7,5.3-5.422,7.653-8.427l18.8-23.748a81.065,81.065,0,0,0,9.364-15.3,46.588,46.588,0,0,1,6.739-10.2,9.2,9.2,0,0,1,8.01-3.068C5656.779,882.454,5657.087,883.341,5657.984,883.632Zm-56.849,5.1c-.314-1.483-.625-2.672-.936-3.86a2.613,2.613,0,0,0-2.705-2.058,10.24,10.24,0,0,1-2.353,2.71c-2.366,1.519-3.829,3.919-5.6,5.72-8.526,10.23-15.854,21.037-20.184,33.593-2.019,5.981-2.847,11.949-3.674,17.917,0,.3.3.6.612,1.485,3.525-4.505,6.759-8.417,9.692-12.62,5.577-7.508,11.456-14.724,16.735-22.233a29.57,29.57,0,0,0,3.221-5.1Z" fill="#0090df"/>
        <path id="Path_150" data-name="Path 150" d="M5743.491,884.47a31.991,31.991,0,0,1-2.645,3.309c-5.606,4.829-9.711,10.833-13.816,16.838-2.64,3.6-4.977,7.8-7.917,11.4a33.224,33.224,0,0,0-4.65,10.482,14.194,14.194,0,0,1-2.618,5.692,21.17,21.17,0,0,0-2.933,4.2c-2.337,4.2-4.674,8.394-8.212,11.713a2.267,2.267,0,0,0-.579,1.494l0-.3c-2.651,2.709-6.219,3.349-9.175,5.465-4.472-.251-8.662-1.987-12.852-3.733a5.233,5.233,0,0,1-2.413-2.652,48.526,48.526,0,0,1-3.353-6.818c-.629-2.967-.053-4.766.513-7.451a46.421,46.421,0,0,0,1.122-6.266,123.072,123.072,0,0,1,4.3-14.95,87.184,87.184,0,0,1,4.068-9.279c2.042-3.9,4.084-7.791,5.829-11.681.582-1.2,1.165-2.4-.04-3.574-1.784.315-2.664,1.516-3.545,2.718-2.638,3.9-6.176,7.219-7.917,11.409a15.63,15.63,0,0,1-3.529,4.21c-3.237,3.611-6.47,7.518-8.506,12.012a11.334,11.334,0,0,1-2.639,3.9,78.46,78.46,0,0,0-9.635,17.688c-1.162,2.692-1.727,5.382-3.488,7.785a10.449,10.449,0,0,0-1.741,4.19c-.275,2.091-1.152,3.588-3.234,3.907a4.218,4.218,0,0,0-1.182.909c-4.73,3.333-10.131-.183-12.227-1.056a36.348,36.348,0,0,1-5.987-2.612c-2.7-1.763-2.417-2.958-2.45-5.931a10.607,10.607,0,0,1-.628-2.978,36.8,36.8,0,0,1,.529-5.964l3.7-15.534a167.353,167.353,0,0,1,13.584-37.684,67.256,67.256,0,0,1,3.207-6.295c2.927-4.8,5.277-7.805,8.206-12.309,1.466-2.1,1.175-1.5,1.767-1.8s.891-.311,1.794.571c2.1,1.468,4.2,2.937,6.309,4.7a8.779,8.779,0,0,1,3.039,5.334,33,33,0,0,1,.658,5.651c.3.3-1.159,2.992-1.436,4.783-.262,3.277-.527,6.265-1.087,9.546s-1.412,6.866-2.27,10.155a2.247,2.247,0,0,0,.311,1.188l1.48-.913c7.06-8.12,12.631-16.223,20.9-23.17,0-.295,1.483-.612,1.476-1.208,2.38-.322,5.05-1.248,7.434-1.274a67.841,67.841,0,0,1,7.755.81,31.315,31.315,0,0,1,6.047,7.974,10.09,10.09,0,0,1,.987,8.331c-.56,3.281-1.417,6.571-1.977,9.857-1.707,7.169-3.419,14.038-4.829,21.2a6.4,6.4,0,0,0,.026,2.383c2.056-2.707,3.817-5.11,5.876-7.516a24.074,24.074,0,0,1,3.528-4.2,175.652,175.652,0,0,0,12.926-16.532c1.761-2.4,3.227-4.508,4.991-6.61l10.6-11.734a16.532,16.532,0,0,1,2.059-2.407l.884-.906a3.811,3.811,0,0,1,1.784-.316A4.363,4.363,0,0,1,5743.491,884.47Zm-44.757,47.57-.007-.6c-.294.3-.589.6-.884.906A2.292,2.292,0,0,1,5698.734,932.04Z" fill="#0090df"/>
      </g>
      <g id="Group_34" data-name="Group 34">
        <path id="Path_151" data-name="Path 151" d="M5777.29,856.284c-.006-.58-.006-.58.857-.874C5778.154,855.984,5778.154,855.984,5777.29,856.284Zm14.925,18.021.011,1.013c.231,1.106-.347,1.807-.54,2.819-.216,1.133.012,2.3-.252,3.431a12.473,12.473,0,0,1-.778,1.959c-.6,3.194-.872,5.355-1.187,4.491-.6-2.793-1.547,5.38-2.689,9.215-1.142.932-1.7,8.494-3.079,8.093-1.384-3.9-2.27,7.313-3.6,6.679-1.328,2.682-3.881,5.351-4.854,8.656-.736,2-2.1,4.69-4.1,4.043-.392-.127-.891.559-.581.831.446.067.41.723.243,1.142-.914,2.281-2.757,4.37-3.5,6.658a5.048,5.048,0,0,1-.71,1.162,16.134,16.134,0,0,1-1.424,1.6,7.529,7.529,0,0,0-1.563,2.184,7.692,7.692,0,0,1-1.427,1.6l-1.711,1.9c-.284.287-.569.728-.858.874-.284.293-.573.149-.721-.135l-3.572,3.357a12.151,12.151,0,0,1-5.45,3.092,33.567,33.567,0,0,0-3.306,1.482,14.274,14.274,0,0,1-1.434.738c-.145,0-.575.149-.867.01a4.758,4.758,0,0,0-3.742.906,8,8,0,0,1-4.03,1.052,13.669,13.669,0,0,1-4.19-.238,4.893,4.893,0,0,1-2.027-.7,17.609,17.609,0,0,0-2.905-1.412,20.152,20.152,0,0,1-5.226-2.827,5.046,5.046,0,0,1-1.162-.71,1.781,1.781,0,0,0,.877,1.146,4.312,4.312,0,0,1,1.61,2,.509.509,0,0,0-.286.146,10.055,10.055,0,0,1-3.8-4,4.915,4.915,0,0,1-.161-1.443,1.714,1.714,0,0,1,1.6.562,1.41,1.41,0,0,1,.431-.152c-.3-.862-1.169-1.284-1.609-2a18.416,18.416,0,0,0-1.619-2.582,11.7,11.7,0,0,0-1.632-4.021,2.359,2.359,0,0,0,.164,1.728,15.14,15.14,0,0,0,.885,1.578,11.65,11.65,0,0,1,.457,2.161l.736,1.29a1.855,1.855,0,0,1,.591,1.438,2.038,2.038,0,0,1-2.037-1.565,31.838,31.838,0,0,1-1.48-3.158c.138-.581.132-1.156.269-1.88a6.554,6.554,0,0,1-1.19-3.161,5.668,5.668,0,0,0-.745-2.017c.276-1.3.691-2.892.965-4.34a22.683,22.683,0,0,0,.538-3.328c0-.285.136-.718.132-1.151.119-2.311.672-4.484.936-6.654a31.053,31.053,0,0,1,1.8-6.949,1.83,1.83,0,0,1,.135-.867,3.314,3.314,0,0,0,.555-2.025c.429-.295.282-.726.133-1.156.577-.007.714-.441.854-.875a1.638,1.638,0,0,1,.423-1.164.928.928,0,0,0-.16-1.3c-.574.3-.563,1.3-1.137,1.6a3.163,3.163,0,0,1,.983-2.463l.282-.725.008.722a1.537,1.537,0,0,0,1.282-1.312,1.8,1.8,0,0,0-.866-.138,3.136,3.136,0,0,1,.569-.728,2.275,2.275,0,0,0,.989-1.889,5.331,5.331,0,0,1,1.406-3.48l.423-.869c.847-1.6,1.552-3.192,2.4-4.789a16.273,16.273,0,0,0,1.7-3.05c1.141-1.31,1.7-2.761,2.84-4.076.427-.728,1-1.308.988-2.173a4.531,4.531,0,0,1,1-1.314,3.288,3.288,0,0,0,.994-1.45,2.492,2.492,0,0,1,.569-.729,5.769,5.769,0,0,0,2.427-2.484,1.136,1.136,0,0,1,.571-.581,31.117,31.117,0,0,0,3.99-4.664c.289-.146.286-.436.425-.727l.577-.007c1-.875,2.143-1.9,3.144-2.924.285-.288.718-.44.422-1.012.569-.728,1.138-1.457,2.148-1.468a.14.14,0,0,1,.146.14c-.427.443-1,.734-1.431,1.176a6.05,6.05,0,0,0,2.581-1.621.309.309,0,0,0-.293-.282l1.717-1.611c.865-.01,1.877.127,2.886.115l.285-.435a.142.142,0,0,1,.143-.149,11.844,11.844,0,0,1,3.174-.036,14.713,14.713,0,0,0,3.472.684c1.158.277,2.461.553,3.766.971a.787.787,0,0,1,.724.424.779.779,0,0,1,.3,1.152c0,.29-.285.435.008.722,1-1.024,2.438-1.472,3.145-2.634a3.193,3.193,0,0,1,.718-.441,11.47,11.47,0,0,0,2.72-1.907c.144-.144.142-.292.284-.578q-.653-.427-.009-.87l1.014.421c.289-.146.721-.15,1-.444s.284-.578.423-1.011a15.9,15.9,0,0,0,1.6.847c.716-.583,1.431-1.029,2.292-1.613a6.7,6.7,0,0,0,1.3.418,8.359,8.359,0,0,0,1.148-.593l2.033,1.28a2.1,2.1,0,0,0,.871.281c.433-.005.863-.158,1.3-.163a.971.971,0,0,0,1.306.851c.433-.005.721-.151,1.154-.156.145,0,.291.14.435.285l2.187,1.706a6.42,6.42,0,0,1,1.172,1.579c.154,1.006.456,2.157.759,3.309.152.863.021,1.877.175,2.888a14.529,14.529,0,0,1-.095,4.33A15.867,15.867,0,0,1,5792.215,874.3Zm-20.525-15.359a.143.143,0,0,1,.143-.149Zm-.286.293c.143-.149.141-.291.286-.293C5771.692,859.089,5771.547,859.09,5771.4,859.239Zm0,0-.428.437,0-.148C5771.12,859.527,5771.263,859.383,5771.4,859.239Zm-.569.582c0-.143,0-.143.141-.145Zm12.1,10.258a16.327,16.327,0,0,1-.908-3.6,1.349,1.349,0,0,0-1.6-1.138,2.327,2.327,0,0,0-1.295.447,20.745,20.745,0,0,0-2.584,1.184c-3.443,1.915-6.009,4.971-8.72,7.748-2.139,2.333-3.7,4.945-5.982,7.137,0,.143-.144.145-.142.292-1.989,3.054-4.41,5.823-6.685,8.88l-2.276,3.058c-.708,1.3-1.417,2.467-1.981,3.771a5.57,5.57,0,0,0-.846,1.886,33.566,33.566,0,0,0-1.116,3.477c-.141.15-.283.436-.573.155a1.862,1.862,0,0,1,.133-.872.983.983,0,0,0-1,.733,20.133,20.133,0,0,0-1.92,9.26,8.262,8.262,0,0,0,.166,1.876c.007.579.012,1.012-.418,1.3-.722.008-.722.008-.732-.856a1.107,1.107,0,0,1,.282-.726c-.019-1.729.109-3.318.091-4.91,0-.285-.153-.716-.158-1.148-.143.144-.287.288-.285.436a27.978,27.978,0,0,0-.249,3.467c-.144.144-.142.286-.284.578-.3-1.294-.459-2.447-.617-3.6a2.052,2.052,0,0,1,.13-1.3,11.385,11.385,0,0,1,.7-2.027c.418-1.3.983-2.463,1.4-3.771a1.066,1.066,0,0,0,.137-.718,3.374,3.374,0,0,1,.836-2.609c.286-.293.722-.008.862-.442-.292-.434-.73-.714-.592-1.3a9.8,9.8,0,0,0-1.833,3.917.5.5,0,0,1-.139.292,2.217,2.217,0,0,1-.553,2.463,2.911,2.911,0,0,0-.565.871c-.271,1.733-.974,3.476-.665,5.2a8.615,8.615,0,0,1-.108,3.323,4.183,4.183,0,0,1-.3-1.3l-.016-1.439a5.311,5.311,0,0,0-.161-1.443,3.648,3.648,0,0,0-.118,2.453c-.419,1.159.027,2.457.04,3.611a5.937,5.937,0,0,0,.751,2.592c0,.142.29.139.291.281.284-.577-.732-1.147.273-1.59.727.714.452,1.872,1.183,2.586a1.393,1.393,0,0,1,1.31.851c.145.288.58.573.729.856a2.5,2.5,0,0,1,.585.716c.148.289.58.284.587.864a2.365,2.365,0,0,0-.723-.282c-1.162-.71-2.041-1.712-3.206-2.564a2.268,2.268,0,0,0,.735,1.146,15.6,15.6,0,0,0,1.462,1.719l-.287,0a.143.143,0,1,0,0,.285l.287,0c.293.287.436.285.722-.008l.582.426a2.937,2.937,0,0,1-.717.44,6.476,6.476,0,0,0,2.033.99c.432-.005.728.424.589,1.006-.292-.144-.723.008-1.011-.136l-3.336-1.26a1.1,1.1,0,0,0-.581-.284.745.745,0,0,0,.581.284c0,.142-.14.291-.282.583,1.313,1.135,3.329.827,4.93,2.107a5.78,5.78,0,0,1-3.175-.107,17.2,17.2,0,0,1-2.9-1.123,2.1,2.1,0,0,1-1.6-1.285c0-.142-.29-.281-.437-.427s-.147-.431-.292-.429c-1.016-.564-1.027-1.576-1.47-2.294-.016-1.445-1.041-2.73-.911-4.177-.445-.859-.166-1.875-.466-2.736a6.125,6.125,0,0,1,.25-3.61,11.225,11.225,0,0,0,.408-2.171c.138-.724.707-1.453.407-2.314-.142,0,0-.433.141-.435.72-.15.712-.872.852-1.307l.831-3.041a4.11,4.11,0,0,1,1.273-2.471,1.084,1.084,0,0,0,.281-.578,7.063,7.063,0,0,0,.562-1.594,30.852,30.852,0,0,0,1.553-3.049l.416-1.449a13.078,13.078,0,0,0,.707-1.453,24.957,24.957,0,0,0,1.411-2.757c.289-.146.721-.151.72-.293a16.024,16.024,0,0,0,1.277-2.039c.283-.436.128-1.3.993-1.456.145,0,.285-.288.283-.435-.149-.574.135-.867.567-1.162a1.312,1.312,0,0,0,.565-.871c.142-.292.282-.725.571-.871a19.6,19.6,0,0,0,2.279-2.767c.139-.292.279-.726.564-.877.72-.292,1-1.018,1.281-1.744l.713-.872c.424-.727,1.288-1.027,1.419-2.041a16.406,16.406,0,0,0,2-2.474l.429-.294a9.156,9.156,0,0,0,1.14-1.311c.144-.143.573-.438.282-.725a6.225,6.225,0,0,0-4.017,2.212c-.143.144-.429.289-.571.581a45.363,45.363,0,0,0-4.717,4.239,112.9,112.9,0,0,0-8.819,11.646c-1.136,1.748-1.984,3.487-2.974,5.233l-4.673,8.277c-.988,1.889-2.119,4.069-3.109,6.1a25.172,25.172,0,0,1-1.265,2.9.514.514,0,0,0-.141.291,7.093,7.093,0,0,1-1.4,3.77c.148.431.442.86.157,1.3a6.033,6.033,0,0,0-.42,1.16,40.184,40.184,0,0,0-1.111,3.909,6.773,6.773,0,0,1-.4,2.462c-.143.144-.285.435-.139.576.166,1.876-.969,3.618-.661,5.492a28.015,28.015,0,0,0,.054,4.908c.29,0,.579.136.869.133.007.58-.132,1.161-.127,1.594a8.743,8.743,0,0,0,2.514,5.309,3.426,3.426,0,0,0,1.888.991l3.029-.034a1.516,1.516,0,0,0,2.024.125l2.871-1.334a17.634,17.634,0,0,0,4.157-2.5c.143-.149.579-.154.719-.3l1.434-1.028a27.746,27.746,0,0,0,3.714-3.359c1.714-1.606,3.14-3.356,5-4.822.14-.144.429-.289.568-.581l2.138-2.624a2.887,2.887,0,0,0,.728.425l1.85-2.183,4.682-7.413c1.135-1.748,2.125-3.493,3.117-5.091.57-1.014,1.134-1.885,1.56-2.76l2.958-6.381a29.915,29.915,0,0,0,2.676-6.237l.424-.727a6.825,6.825,0,0,0,.706-1.453c.7-1.594.972-3.475,1.964-5.073,0-.142,0-.29.142-.291l.824-3.616c.145,0,.437.137.581.136a27.93,27.93,0,0,0,1.078-6.941,37.434,37.434,0,0,1,.388-4.044A5.571,5.571,0,0,0,5782.93,870.079ZM5765,866.956a2.015,2.015,0,0,1,.426-.579C5765.136,866.522,5764.846,866.525,5765,866.956Zm-1.857,1.756a2.034,2.034,0,0,0,.572-.439C5763.42,868.276,5763.133,868.279,5763.138,868.712Zm-2.3.6c.142-.286.284-.288.432,0Zm0,.29c-.147-.141-.147-.141,0-.29Zm-2.71,2.92c0-.148.142-.292.283-.441Zm-.143.144c0-.143,0-.143.143-.144A.14.14,0,0,0,5757.985,872.666Zm-3.848,4.372v.147l-.144,0Zm-1.718,1.322-.147-.147.288-.287c0,.142.145.282.146.43Zm1.205,4.458a3.052,3.052,0,0,1,.567-.872C5753.47,882.1,5753.47,882.1,5753.624,882.818Zm-.284.583c0-.148.142-.292.138-.582A.877.877,0,0,0,5753.34,883.4Zm-.568.871c.287-.293.284-.584.425-.727C5753.056,883.688,5752.622,883.551,5752.772,884.272Zm-.718.44,0,.29c.145,0,.143-.144.142-.292Zm-4.6,1.929c0,.289.151.578.154.863a1.063,1.063,0,0,0-.575.154C5747.031,887.225,5746.885,886.937,5747.457,886.641Zm-.038,9.381.011,1.012a2.407,2.407,0,0,0,1.279-1.6,36.245,36.245,0,0,1,1.7-3.341c.424-.728.7-1.595,1.128-2.465-.434.148-1.01.3-1.149.588-.569,1.019-1.57,1.752-1.7,3.051,0,.147-.284.293-.284.293a1.565,1.565,0,0,0-.99,1.74,1.266,1.266,0,0,0-.708,1.311A3.238,3.238,0,0,1,5747.419,896.022Zm-1.94-5.6a.143.143,0,0,1-.146-.146c0-.142.143-.144.288-.146l0,.143Zm1.932,4.882c.288.145.292.435.008.723Zm-.536,3.761h-.145l.147.147Zm-25.256.428a.141.141,0,0,0,.141-.149v.148l0,.142A.14.14,0,0,0,5721.619,899.488Zm23.4,1.037,0,.143h-.145Zm.147.141c-.142.292-.144.149-.145,0Zm-24.669,1.287a.791.791,0,0,1,.424-.728C5720.919,901.515,5720.922,901.8,5720.492,901.953Zm19.916-.222a.141.141,0,0,0-.143.144l0-.142.143-.144Zm-22.724,7.614c-.436-.286-.294-.572-.008-.722a11.994,11.994,0,0,1,1.119-3.187c0-.143.143-.144.287-.293l0,.432a1.372,1.372,0,0,0,.014,1.3c-.717.44-.85,1.307-1.278,1.892Zm23.649-2.43a5.017,5.017,0,0,1,.125-1.589A1.921,1.921,0,0,0,5741.333,906.915Zm-24.216,3.158c.142,0,.142,0,.141-.143v.142l0,.142A.139.139,0,0,1,5717.117,910.073Zm-1.67,5.793a35.538,35.538,0,0,1,1.248-4.633.453.453,0,0,0,.288-.146,11.866,11.866,0,0,1-.964,4.051C5716.022,915.427,5715.733,915.573,5715.447,915.866Zm28.857-1.185a1.1,1.1,0,0,1-.016-1.445Zm-1.163-.71a.141.141,0,0,0,.147.141c-.145,0-.145,0-.144.149,0-.147,0-.147-.144-.146Zm1.163.71a.141.141,0,0,0,.146.141h-.144Zm-2.732.895a2.568,2.568,0,0,0,.154.863C5741.865,915.863,5741.863,915.715,5741.572,915.576Zm-25.244,1.578c0,.147,0,.147-.143.149.143-.149.143-.149.142-.292Zm-1.435.6c.141-.143.139-.291.281-.583h.145v.148c.146.288.149.573-.283.577A.139.139,0,0,1,5714.893,917.749Zm30.024-.043a.144.144,0,0,1,.141-.149l0,.147Zm-1.851,2.331c0-.433-.44-.718-.734-1.005C5742.339,919.612,5742.489,920.043,5743.066,920.037Zm-29.533,5.379c-.148-.288-.437-.427-.439-.575.127-1.447.4-2.747.533-4.045a1.33,1.33,0,0,1,1.427-1.319c.146,0,.29,0,.289-.145.3.719.157,1.3-.561,1.451a.525.525,0,0,0-.282.725c.144,0,.288-.15.433-.152.443,1.007-.123,2.021-.113,2.891l0,.142-.147-.14C5714.1,924.4,5713.817,924.833,5713.533,925.416Zm29.534-5.238c.007.575.588.859,1.024,1.287C5743.939,920.744,5743.647,920.315,5743.067,920.178Zm3.2,1.985,0-.285a2.458,2.458,0,0,1,.725.277Zm2.314.407c-.426.584-.426.584-.864.009Zm22.407,2.93a.142.142,0,0,0,.143-.149l0,.148Zm-1,.734c-.286.146-.284.288-.281.578C5769.842,926.668,5769.839,926.378,5769.983,926.234Zm-55.568.76v-.143a.141.141,0,0,1,.147.141Zm54.153,1.708a2.755,2.755,0,0,0,.706-1.453l-1.286,1.169a4.667,4.667,0,0,0-1.133,2.032c-.433.153-.57.586-.854,1.165.719-.293.714-.725.854-1.165Zm-52.633,5.061a.65.65,0,0,1-.15-.436C5715.644,933.619,5715.79,933.765,5715.935,933.763Zm.6,1.723a2.611,2.611,0,0,0-.6-1.58C5716.089,934.478,5715.95,935.06,5716.532,935.486Zm43.656,5.431c-.144.15-.432.295-.574.587A.532.532,0,0,0,5760.188,940.917Zm-.716.588c0,.291-.14.434-.282.726A.531.531,0,0,0,5759.472,941.505Zm-34.544,9.043.732.862a1.133,1.133,0,0,1-1.156-.135c-.147-.141-.295-.429-.152-.573A.358.358,0,0,1,5724.928,950.548Zm1.307.855a15.647,15.647,0,0,1,2.32.981c-1.585.166-1.872.169-2.9-.974Zm3.334,1.118a.14.14,0,0,0,.144.141h-.142l-.145,0Z" fill="#0090df"/>
      </g>
    </g>
    <g id="Group_36" data-name="Group 36">
      <path id="Path_152" data-name="Path 152" d="M5094.19,667.751l-2.252,12.765q-.741,4.2-2.643,4.987a17.859,17.859,0,0,1-5.722.889h-.139c-.616.01-1.228.026-1.85.026h-1.866c-.869,0-1.743-.016-2.628-.016s-1.763-.036-2.647-.077a5.329,5.329,0,0,1-3.763-1.239c-.715-.755-.91-2.056-.591-3.881l2.37-13.454h2.246l-2.329,13.182c-.283,1.6-.082,2.58.6,2.92a7.924,7.924,0,0,0,3.192.57l3.953.026,4.3-.092a9.608,9.608,0,0,0,3.547-.545q1.241-.525,1.686-3.049l.083-.442,2.21-12.57Z" fill="#fff"/>
      <path id="Path_153" data-name="Path 153" d="M5113.766,684.357l-.329,1.866h-16.826l3.259-18.472h2.237l-2.93,16.606Z" fill="#fff"/>
      <path id="Path_154" data-name="Path 154" d="M5126.033,686.223h-2.242l2.926-16.585h-9.3l.334-1.887h20.9l-.339,1.887h-9.352Z" fill="#fff"/>
      <path id="Path_155" data-name="Path 155" d="M5144,667.751l-3.259,18.472H5138.5l3.254-18.472Z" fill="#fff"/>
      <path id="Path_156" data-name="Path 156" d="M5162.164,686.223h-1.8l-8.595-16.585-2.915,16.585h-2.247l3.254-18.472h3.65l8.236,15.84,13.855-15.84h3.609l-3.259,18.472h-2.247l2.925-16.585Z" fill="#fff"/>
      <path id="Path_157" data-name="Path 157" d="M5184.378,682.069l-3.085,4.154h-2.632l14.164-18.472h2.992l7.737,18.472h-2.581l-1.676-4.154Zm9.655-12.683-8.272,10.832h12.816Z" fill="#fff"/>
      <path id="Path_158" data-name="Path 158" d="M5215.039,686.223H5212.8l2.919-16.585h-9.3l.334-1.887h20.9l-.334,1.887h-9.357Z" fill="#fff"/>
      <path id="Path_159" data-name="Path 159" d="M5231.593,675.725h15.474l-.329,1.86h-15.479l-1.193,6.772h16.25l-.333,1.866H5227.5l3.254-18.472h18.3l-.335,1.887h-16.055Z" fill="#fff"/>
      <path id="Path_160" data-name="Path 160" d="M5261.745,686.223H5259.5l3.254-18.472h3.738l14.086,16.7,2.941-16.7h2.241l-3.254,18.472h-3.686l-14.117-16.78Z" fill="#fff"/>
      <path id="Path_161" data-name="Path 161" d="M5290.93,682.069l-3.09,4.154h-2.627l14.169-18.472h2.982l7.737,18.472h-2.57l-1.677-4.154Zm9.65-12.683-8.272,10.832h12.816Z" fill="#fff"/>
      <path id="Path_162" data-name="Path 162" d="M5315.057,686.223h-2.247l3.259-18.472h3.733l14.086,16.7,2.946-16.7h2.247l-3.26,18.472h-3.686l-14.117-16.78Z" fill="#fff"/>
      <path id="Path_163" data-name="Path 163" d="M5342.71,677.128c.057-.3.108-.6.16-.91s.118-.622.19-.925c.108-.622.252-1.249.416-1.877a15.768,15.768,0,0,1,.6-1.825,5.242,5.242,0,0,1,2.822-3.177,11.621,11.621,0,0,1,4.051-.771c.679-.02,1.368-.036,2.057-.041s1.367-.016,2.045-.016h4.072c3.841,0,6.211.5,7.1,1.517s1.023,3.4.36,7.166c-.144.823-.3,1.656-.468,2.489s-.365,1.655-.6,2.488a6.443,6.443,0,0,1-2.293,3.728,8.385,8.385,0,0,1-4.236,1.274c-.777.077-1.543.118-2.314.129s-1.521.015-2.277.015h-4.129c-.647,0-1.29-.015-1.943-.041-.658-.01-1.3-.067-1.928-.128a1,1,0,0,0-.282-.026,2.088,2.088,0,0,1-.288-.026,7.032,7.032,0,0,1-1.913-.6,2.782,2.782,0,0,1-1.342-1.367,4.809,4.809,0,0,1-.38-1.769,15.564,15.564,0,0,1,.057-2.071c.046-.576.113-1.136.205-1.7.093-.545.17-1.054.252-1.506Zm2.1,1.28a11.454,11.454,0,0,0-.155,4.493c.263.952,1.522,1.456,3.805,1.5l4.75.051h1.723c.364.015.734.026,1.12.026s.756-.011,1.146-.026.751-.036,1.132-.051.76-.052,1.13-.093a3.7,3.7,0,0,0,3.039-1.5,9.13,9.13,0,0,0,1.116-3.2q.084-.469.185-.941c.067-.323.123-.637.179-.976a9.427,9.427,0,0,0,.2-.936c.057-.314.113-.627.17-.936.046-.288.092-.586.143-.9.047-.33.093-.653.124-.967a15.635,15.635,0,0,0,.113-1.794,3.129,3.129,0,0,0-.267-1.388,1.3,1.3,0,0,0-.422-.509,2.667,2.667,0,0,0-.6-.324c-.021-.01-.036-.021-.062-.036a.189.189,0,0,0-.1-.016,4.813,4.813,0,0,0-.9-.195c-.329-.041-.658-.062-.993-.082a4.955,4.955,0,0,0-.57-.026h-.581l-4.339-.056-4.3.082a8.568,8.568,0,0,0-4.175.812c-.781.509-1.387,1.815-1.8,3.9l-.57,2.735Z" fill="#fff"/>
      <path id="Path_164" data-name="Path 164" d="M5378.008,677.611l-.329,1.825h-8.657l.319-1.825Z" fill="#fff"/>
      <path id="Path_165" data-name="Path 165" d="M5388.805,686.223h-2.242l2.925-16.585h-9.3l.339-1.887h20.9l-.334,1.887h-9.356Z" fill="#fff"/>
      <path id="Path_166" data-name="Path 166" d="M5405.359,675.725h15.469l-.324,1.86h-15.475l-1.2,6.772h16.251l-.329,1.866h-18.492l3.254-18.472h18.3l-.334,1.887h-16.055Z" fill="#fff"/>
      <path id="Path_167" data-name="Path 167" d="M5447.489,680.1a9.736,9.736,0,0,1-1.835,4.766c-.823.9-2.623,1.382-5.4,1.434l-4.776.092h-.514a3.417,3.417,0,0,0-.514.026h-1.023c-.683,0-1.367-.016-2.046-.041s-1.352-.093-2.015-.154a4.374,4.374,0,0,1-3.347-1.527,5.173,5.173,0,0,1-.653-3.722c.026-.3.067-.586.1-.885s.073-.586.124-.889c.031-.273.077-.561.129-.858s.108-.586.159-.885c.067-.365.123-.73.19-1.08.057-.365.134-.729.211-1.1.118-.534.252-1.084.391-1.614.138-.55.3-1.079.488-1.624a5.743,5.743,0,0,1,2.529-3.332,10.4,10.4,0,0,1,3.933-.961c.566-.057,1.126-.093,1.692-.108s1.141-.036,1.712-.057h2.359a5.911,5.911,0,0,0,.664-.03h1.331c.812,0,1.614.025,2.4.071a14.928,14.928,0,0,1,2.329.319c1.46.3,2.251,1,2.37,2.129a14.638,14.638,0,0,1-.062,3.6l-2.211-.026.031-.17c.031-.17.057-.35.082-.575.031-.206.052-.412.078-.638a4.629,4.629,0,0,0-.047-1.167,1.206,1.206,0,0,0-.488-.833,3.294,3.294,0,0,0-1.5-.478,18.856,18.856,0,0,0-2.268-.185c-.4-.021-.807-.031-1.212-.041s-.782-.021-1.132-.021c-1.007,0-2.02.016-3.028.021s-2.025.061-3.053.154a5.853,5.853,0,0,0-3.2.869,6.5,6.5,0,0,0-1.44,2.971c-.108.391-.205.782-.288,1.172s-.164.771-.236,1.162-.17.808-.242,1.183q-.092.586-.2,1.172a14.4,14.4,0,0,0-.247,4.545c.175,1.085,1.388,1.629,3.614,1.629.715.016,1.434.026,2.154.041s1.44.011,2.159.011l4.139-.077a10.008,10.008,0,0,0,3.506-.545c.807-.34,1.367-1.332,1.65-2.972l.139-.781Z" fill="#fff"/>
      <path id="Path_168" data-name="Path 168" d="M5455.293,677.611l-1.512,8.612h-2.246l3.254-18.472h2.247l-1.414,8h17.217l1.414-8h2.216l-3.255,18.472H5471l1.517-8.612Z" fill="#fff"/>
      <path id="Path_169" data-name="Path 169" d="M5481.327,686.223h-2.247l3.255-18.472h3.737l14.086,16.7,2.946-16.7h2.237l-3.255,18.472H5498.4l-14.117-16.78Z" fill="#fff"/>
      <path id="Path_170" data-name="Path 170" d="M5508.975,677.128c.052-.3.1-.6.16-.91s.113-.622.2-.925c.1-.622.247-1.249.406-1.877a18.037,18.037,0,0,1,.6-1.825,5.236,5.236,0,0,1,2.817-3.177,11.67,11.67,0,0,1,4.051-.771c.694-.02,1.378-.036,2.062-.041s1.367-.016,2.051-.016h4.066c3.846,0,6.205.5,7.11,1.517s1.018,3.4.355,7.166c-.144.823-.3,1.656-.468,2.489s-.365,1.655-.6,2.488a6.457,6.457,0,0,1-2.292,3.728,8.384,8.384,0,0,1-4.236,1.274c-.772.077-1.538.118-2.309.129s-1.527.015-2.283.015h-4.133c-.637,0-1.285-.015-1.938-.041-.653-.01-1.3-.067-1.928-.128a1.06,1.06,0,0,0-.288-.026,2.179,2.179,0,0,1-.282-.026,7.186,7.186,0,0,1-1.918-.6,2.822,2.822,0,0,1-1.342-1.367,4.8,4.8,0,0,1-.375-1.769,15.577,15.577,0,0,1,.062-2.071c.041-.576.108-1.136.195-1.7l.257-1.506Zm2.1,1.28a11.485,11.485,0,0,0-.154,4.493c.258.952,1.522,1.456,3.81,1.5l4.745.051h1.717c.365.015.745.026,1.121.026s.756-.011,1.156-.026c.371-.026.746-.036,1.126-.051s.761-.052,1.137-.093a3.673,3.673,0,0,0,3.028-1.5,8.911,8.911,0,0,0,1.12-3.2c.062-.313.119-.627.186-.941s.128-.637.179-.976c.078-.309.144-.623.2-.936s.113-.627.17-.936c.046-.288.092-.586.143-.9.047-.33.093-.653.129-.967a16.774,16.774,0,0,0,.108-1.794,3.129,3.129,0,0,0-.267-1.388,1.277,1.277,0,0,0-.427-.509,2.357,2.357,0,0,0-.591-.324c-.021-.01-.031-.021-.057-.036a.2.2,0,0,0-.1-.016,4.929,4.929,0,0,0-.9-.195c-.329-.041-.652-.062-.987-.082a4.99,4.99,0,0,0-.575-.026h-.581l-4.339-.056-4.3.082a8.558,8.558,0,0,0-4.17.812c-.781.509-1.388,1.815-1.809,3.9l-.566,2.735Z" fill="#fff"/>
      <path id="Path_171" data-name="Path 171" d="M5553.542,684.357l-.323,1.866h-16.832l3.254-18.472h2.242l-2.926,16.606Z" fill="#fff"/>
      <path id="Path_172" data-name="Path 172" d="M5558.087,677.128c.056-.3.108-.6.16-.91s.117-.622.19-.925c.107-.622.246-1.249.406-1.877s.375-1.233.6-1.825a5.279,5.279,0,0,1,2.818-3.177,11.722,11.722,0,0,1,4.061-.771c.679-.02,1.367-.036,2.046-.041s1.378-.016,2.057-.016h4.066c3.835,0,6.2.5,7.11,1.517s1.023,3.4.36,7.166c-.144.823-.3,1.656-.468,2.489s-.365,1.655-.6,2.488a6.462,6.462,0,0,1-2.292,3.728,8.411,8.411,0,0,1-4.242,1.274c-.771.077-1.537.118-2.308.129s-1.522.015-2.278.015h-4.127c-.654,0-1.3-.015-1.949-.041-.653-.01-1.3-.067-1.928-.128a.987.987,0,0,0-.278-.026,2.118,2.118,0,0,1-.288-.026,7.156,7.156,0,0,1-1.922-.6,2.778,2.778,0,0,1-1.332-1.367,4.61,4.61,0,0,1-.38-1.769,14.779,14.779,0,0,1,.056-2.071c.047-.576.113-1.136.206-1.7.082-.545.17-1.054.247-1.506Zm2.1,1.28a11.179,11.179,0,0,0-.154,4.493c.252.952,1.522,1.456,3.805,1.5l4.75.051h1.722c.365.015.735.026,1.11.026s.766-.011,1.158-.026c.374-.026.75-.036,1.13-.051s.756-.052,1.131-.093a3.712,3.712,0,0,0,3.039-1.5,9.12,9.12,0,0,0,1.115-3.2q.085-.469.186-.941c.066-.323.123-.637.179-.976.072-.309.139-.623.2-.936s.108-.627.164-.936c.047-.288.1-.586.149-.9.041-.33.088-.653.124-.967a15.859,15.859,0,0,0,.113-1.794,3.057,3.057,0,0,0-.273-1.388,1.286,1.286,0,0,0-.416-.509,2.6,2.6,0,0,0-.6-.324c-.015-.01-.03-.021-.056-.036a.191.191,0,0,0-.1-.016,4.866,4.866,0,0,0-.9-.195c-.329-.041-.654-.062-.987-.082a4.993,4.993,0,0,0-.571-.026h-.587l-4.339-.056-4.3.082a8.565,8.565,0,0,0-4.175.812c-.781.509-1.388,1.815-1.8,3.9l-.571,2.735Z" fill="#fff"/>
      <path id="Path_173" data-name="Path 173" d="M5597.514,678.968l.323-1.866h12.023c-.026.16-.052.3-.065.432-.013.144-.033.273-.054.406-.03.155-.051.283-.077.417s-.046.272-.072.416a13.285,13.285,0,0,1-2.123,5.753c-.957,1.239-2.974,1.866-6.061,1.866l-4.548.026h-.781c-.273,0-.545,0-.82.026h-1.614c-3.427,0-5.637-.509-6.614-1.527s-1.172-3.265-.555-6.771l.19-1.054A19.878,19.878,0,0,1,5589,670q1.5-2.305,6.768-2.309l4.663-.082a4.773,4.773,0,0,0,.548.031c.179,0,.375-.01.585-.031h2.031c.314,0,.612.011.925.031.294.015.6.031.911.041a8.268,8.268,0,0,1,.9.067q2.706.194,3.53,1.486a5.785,5.785,0,0,1,.4,3.974l-2.2-.026c.3-1.738.085-2.751-.658-3.064a10.06,10.06,0,0,0-3.316-.514h-.247l-3.751-.062a3.482,3.482,0,0,1-.56.036,2.8,2.8,0,0,1-.522-.036h-2c-.311,0-.611.016-.912.036l-.918.046a8.586,8.586,0,0,0-.923.062.342.342,0,0,0-.126.016.413.413,0,0,1-.128.015,6.821,6.821,0,0,0-2.6.684c-.7.365-1.257,1.413-1.678,3.156-.088.391-.18.782-.263,1.188-.092.391-.169.792-.241,1.2-.093.4-.17.807-.232,1.2-.082.39-.144.781-.21,1.172a12.051,12.051,0,0,0-.222,4.714c.247.884,1.589,1.357,4.039,1.393l4.7.026c.167.015.332.026.494.026h.5c.165.015.326.025.488.025h1.316c.273,0,.548-.01.821-.025.288-.011.56-.036.833-.052s.547-.036.822-.066c1.771-.181,2.884-.664,3.347-1.43a10.67,10.67,0,0,0,1.113-3.126c.026-.133.051-.262.085-.406s.064-.282.09-.427Z" fill="#fff"/>
      <path id="Path_174" data-name="Path 174" d="M5633.817,667.751H5637l-12.528,10.606-1.38,7.866h-2.247l1.385-7.866-8.765-10.606h3.192l7.021,8.663Z" fill="#fff"/>
    </g>
  </g>
</svg>
